{"title":"Hardwired 2009 DVDrip English Klam","uid":6189130,"size":1399150521,"categoryP":"video","categoryS":"movies","magnet":"?xt=urn:btih:961c2833d1d9ee498bad5c59ef7d5517a5b3eace&amp;dn=Hardwired+2009+DVDrip+English+Klam&amp;tr=udp%3A%2F%2Ftracker.openbittorrent.com%3A80&amp;tr=udp%3A%2F%2Fopen.demonii.com%3A1337&amp;tr=udp%3A%2F%2Ftracker.coppersurfer.tk%3A6969&amp;tr=udp%3A%2F%2Fexodus.desync.com%3A6969","seeders":0,"leechers":2,"uploader":"Klambake","files":-1,"time":1298220746,"description":"With: Val Kilmer, Cuba Gooding Jr. and Rachel Luttrell\n\nAfter a tragic accident claims the lives of Luke Gibson's (Gooding Jr.) wife and unborn child, he is left with critical injuries and complete amnesia. A new technological breakthrough from the Hexx Corporation - a Psi-Comp Implant that's hardwired into Luke's brain - saves his life, but Luke soon finds out that this new technology comes with a price and that the Hexx Corporation harbors sinister plans for the new device. With the help of new allies, Luke tries to recover the memories of his past while uncovering the Hexx Corporation's true motives. \n\nGeneral:\n\nComplete name                    : Hardwired\\Hardwired.avi\nFormat                           : AVI\nFormat/Info                      : Audio Video Interleave\nFile size                        : 1.30 GiB\nDuration                         : 1h 29mn\nOverall bit rate                 : 2 071 Kbps\n\nVideo:\n\nFormat                           : MPEG-4 Visual\nFormat profile                   : Simple@L3\nFormat settings, BVOP            : No\nFormat settings, QPel            : No\nFormat settings, GMC             : No warppoints\nFormat settings, Matrix          : Default (H.263)\nCodec ID                         : XVID\nCodec ID/Hint                    : XviD\nDuration                         : 1h 29mn\nBit rate                         : 1 612 Kbps\nWidth                            : 704 pixels\nHeight                           : 396 pixels\nDisplay aspect ratio             : 16:9\nFrame rate                       : 25.000 fps\nColor space                      : YUV\nChroma subsampling               : 4:2:0\nBit depth                        : 8 bits\nScan type                        : Progressive\nBits/(Pixel*Frame)               : 0.231\nStream size                      : 1.01 GiB (78%)\nWriting library                  : XviD 1.1.2 (UTC 2006-11-01)\n\nAudio:\n\nFormat                           : AC-3\nFormat/Info                      : Audio Coding 3\nMode extension                   : CM (complete main)\nCodec ID                         : 2000\nDuration                         : 1h 29mn\nBit rate mode                    : Constant\nBit rate                         : 448 Kbps\nChannel(s)                       : 6 channels\nChannel positions                : Front: L C R, Side: L R, LFE\nSampling rate                    : 48.0 KHz\nBit depth                        : 16 bits\nStream size                      : 288 MiB (22%)\nAlignment                        : Aligned on interleaves\nInterleave, duration             : 32 ms (0.80 video frame)","torrent":{"xt":"urn:btih:961c2833d1d9ee498bad5c59ef7d5517a5b3eace","amp;dn":"Hardwired+2009+DVDrip+English+Klam","amp;tr":["udp%3A%2F%2Ftracker.openbittorrent.com%3A80","udp%3A%2F%2Fopen.demonii.com%3A1337","udp%3A%2F%2Ftracker.coppersurfer.tk%3A6969","udp%3A%2F%2Fexodus.desync.com%3A6969"],"infoHash":"961c2833d1d9ee498bad5c59ef7d5517a5b3eace","infoHashBuffer":{"type":"Buffer","data":[150,28,40,51,209,217,238,73,139,173,92,89,239,125,85,23,165,179,234,206]},"announce":[],"urlList":[]}}